<?xml version="1.0" standalone="no"?>
<!DOCTYPE svg PUBLIC "-//W3C//DTD SVG 20010904//EN"
 "http://www.w3.org/TR/2001/REC-SVG-20010904/DTD/svg10.dtd">
<svg version="1.0" xmlns="http://www.w3.org/2000/svg"
 width="180.000000pt" height="180.000000pt" viewBox="0 0 180.000000 180.000000"
 preserveAspectRatio="xMidYMid meet">
<metadata>
Created by potrace 1.10, written by Peter Selinger 2001-2011
</metadata>
<g transform="translate(0.000000,180.000000) scale(0.100000,-0.100000)"
fill="#000000" stroke="none">
<path d="M100 1100 l0 -580 75 0 c69 0 75 2 80 23 7 31 29 179 60 392 31 218
75 498 79 502 2 3 116 -35 159 -52 15 -6 17 0 17 54 l0 60 -40 12 c-33 10 -40
17 -40 37 0 20 4 23 23 18 72 -20 67 -22 64 23 -3 42 3 48 37 35 11 -4 16 -19
16 -49 0 -41 2 -44 40 -59 32 -13 40 -21 40 -41 l0 -25 -35 17 c-19 9 -37 14
-40 11 -3 -3 -3 -30 1 -61 l7 -55 92 -37 92 -37 68 -242 c37 -132 83 -296 102
-363 19 -67 35 -131 36 -143 1 -20 6 -20 334 -20 l333 0 0 580 0 580 -800 0
-800 0 0 -580z m435 533 c-20 -15 -20 -15 3 -10 12 3 20 1 16 -4 -3 -5 -17 -9
-32 -10 -24 0 -25 -1 -7 -9 19 -8 18 -9 -4 -9 -26 -1 -50 -26 -51 -53 0 -9 16
-29 35 -44 24 -18 34 -33 33 -50 -3 -28 -2 -28 -22 -8 -9 8 -40 18 -69 21 -64
6 -86 -12 -92 -79 -3 -25 -14 -101 -25 -171 -11 -70 -20 -142 -20 -161 0 -19
-4 -37 -9 -40 -4 -3 -11 -45 -15 -93 -4 -48 -12 -93 -17 -99 -5 -6 -11 -40
-13 -75 -7 -90 -17 -152 -28 -166 -6 -7 -25 -12 -44 -11 -33 1 -34 3 -34 42 0
23 0 192 -1 376 0 184 0 410 0 503 l1 167 208 0 c191 -1 205 -2 187 -17z
m1123 -524 l2 -537 -57 -7 c-32 -4 -148 -6 -258 -4 -110 2 -206 0 -212 -4 -8
-5 -13 -4 -13 2 0 6 -13 11 -29 11 -26 0 -30 5 -41 48 -6 26 -16 57 -21 70 -5
13 -7 28 -4 33 4 5 2 9 -3 9 -6 0 -13 23 -17 52 -4 29 -11 59 -15 68 -16 30
-52 154 -52 177 0 13 -5 23 -10 23 -6 0 -8 9 -5 20 3 11 1 20 -3 20 -5 0 -12
17 -15 38 -3 20 -11 55 -16 77 -6 22 -10 44 -9 48 0 4 -6 15 -15 24 -9 8 -13
23 -10 32 5 12 3 13 -5 5 -9 -9 -17 -7 -31 7 -10 10 -28 19 -40 19 -13 0 -18
4 -13 12 5 8 2 9 -9 5 -10 -3 -17 -2 -17 2 0 5 -7 12 -16 15 -9 3 -12 2 -8 -5
3 -6 -3 -5 -14 2 -12 7 -18 17 -16 21 3 4 1 8 -4 8 -6 0 -12 6 -15 13 -4 10 2
13 21 10 15 -2 21 0 14 3 -10 5 -7 10 10 18 12 6 24 21 26 33 4 25 -24 73 -42
73 -6 0 -4 -5 4 -10 9 -6 10 -10 3 -10 -15 0 -28 24 -38 70 -4 19 -13 38 -19
42 -6 4 219 7 499 5 l510 -2 3 -536z"/>
<path d="M516 1302 c-10 -115 -8 -182 8 -182 7 0 19 -7 26 -15 25 -30 32 -8
32 108 l1 118 -30 19 -30 18 -7 -66z"/>
<path d="M496 933 c-4 -71 -9 -136 -12 -145 -4 -12 5 -21 29 -32 19 -8 38 -19
41 -25 20 -32 26 1 26 142 l0 153 -35 17 c-20 9 -37 17 -39 17 -2 0 -6 -57
-10 -127z m52 -50 c-2 -35 -6 -63 -9 -63 -4 0 -10 -8 -12 -17 -3 -10 -3 2 -1
26 2 24 4 74 5 110 1 55 2 61 10 36 4 -16 8 -57 7 -92z"/>
<path d="M480 676 c0 -18 -3 -61 -6 -95 l-7 -61 52 0 51 0 0 69 0 69 -45 25
-45 26 0 -33z m59 -53 c-1 -41 -14 -79 -21 -67 -10 15 -6 74 4 74 5 0 6 5 3
10 -3 6 -1 10 4 10 6 0 11 -12 10 -27z"/>
<path d="M113 466 c13 -10 17 -28 17 -79 0 -36 -4 -69 -10 -72 -18 -11 -10
-20 20 -21 28 -1 41 10 22 18 -11 4 -24 118 -14 118 4 -1 32 -32 62 -70 30
-38 58 -69 63 -69 4 -1 7 36 7 82 0 51 5 88 12 95 9 9 5 12 -21 12 -26 0 -31
-3 -23 -12 11 -15 21 -108 10 -108 -3 0 -28 27 -55 59 -39 49 -54 60 -78 60
-27 0 -28 -1 -12 -13z"/>
<path d="M1018 469 c7 -8 12 -41 12 -86 0 -61 -3 -73 -17 -73 -9 0 -13 -3 -10
-6 6 -6 42 -7 118 -5 11 1 34 14 50 30 36 37 38 79 5 118 -21 24 -32 28 -97
31 -61 3 -72 2 -61 -9z m127 -32 c18 -26 19 -77 2 -101 -7 -10 -28 -18 -47
-19 l-35 -2 -3 69 c-2 43 1 72 8 76 19 12 60 -1 75 -23z"/>
<path d="M339 431 c-40 -40 -39 -81 2 -115 41 -34 73 -33 111 4 25 26 29 36
24 63 -7 39 -48 77 -82 77 -15 0 -38 -12 -55 -29z m91 -10 c14 -27 13 -84 -2
-99 -16 -16 -53 -15 -66 1 -21 25 -25 66 -8 92 20 30 61 33 76 6z"/>
<path d="M483 442 c-8 -19 5 -28 19 -14 28 28 38 13 38 -53 0 -37 -4 -65 -10
-65 -5 0 -10 -4 -10 -8 0 -7 47 -8 80 -2 3 0 -3 5 -12 11 -14 8 -18 23 -18 69
0 53 2 60 20 60 10 0 23 -7 28 -16 8 -14 10 -13 14 7 4 24 3 24 -70 24 -52 0
-76 -4 -79 -13z"/>
<path d="M1273 448 c-6 -7 -21 -38 -33 -68 -12 -30 -26 -59 -31 -64 -5 -6 -9
-13 -9 -16 0 -10 39 -9 45 1 4 5 2 9 -3 9 -6 0 -8 9 -5 21 4 15 12 19 32 17
21 -2 26 -8 24 -29 -1 -24 1 -25 53 -24 30 1 57 5 61 8 3 4 1 7 -5 7 -8 0 -12
18 -12 47 0 52 8 50 31 -10 21 -52 32 -56 47 -14 6 18 19 42 27 52 14 19 15
17 13 -23 -1 -24 -6 -46 -10 -48 -17 -11 -7 -21 22 -21 25 0 29 4 24 16 -15
32 -17 123 -3 132 10 6 7 9 -11 9 -21 0 -29 -9 -49 -52 -22 -48 -25 -50 -37
-33 -8 11 -20 34 -26 52 -9 26 -18 33 -38 33 -17 0 -21 -3 -12 -9 10 -6 12
-23 6 -70 -5 -49 -10 -61 -24 -61 -14 0 -24 19 -42 76 -19 57 -27 72 -35 62z
m7 -64 c0 -8 -6 -14 -14 -14 -9 0 -12 7 -9 20 6 22 23 18 23 -6z"/>
<path d="M658 438 c14 -14 16 -114 2 -123 -19 -12 -10 -20 20 -20 30 0 39 8
20 20 -13 8 -13 55 0 55 5 0 16 -13 25 -30 8 -16 23 -33 33 -38 14 -6 94 -8
158 -3 7 1 14 10 17 20 3 14 1 18 -9 14 -8 -3 -14 -9 -14 -15 0 -5 -12 -8 -27
-6 -22 2 -29 9 -31 31 -3 22 1 27 17 27 12 0 21 -4 21 -10 0 -5 4 -10 9 -10 4
0 6 11 3 25 -3 20 -7 23 -22 15 -27 -15 -30 -13 -30 20 0 24 4 30 21 30 12 0
28 -8 35 -17 12 -17 13 -16 14 5 0 21 -4 22 -62 21 -35 0 -57 -3 -50 -6 8 -3
12 -27 12 -69 0 -57 -2 -64 -19 -64 -11 0 -30 14 -42 31 -20 29 -21 32 -6 41
20 11 22 39 5 56 -7 7 -34 12 -62 12 -39 0 -47 -3 -38 -12z m72 -13 c16 -20 5
-45 -20 -45 -16 0 -20 7 -20 30 0 33 19 40 40 15z"/>
<path d="M1578 444 c15 -7 17 -134 2 -134 -5 0 -10 -3 -10 -7 0 -12 114 -10
122 2 4 5 8 16 8 24 0 11 -4 11 -18 -2 -10 -10 -28 -17 -40 -17 -18 0 -22 6
-22 30 0 31 17 39 38 18 9 -9 12 -6 12 15 0 24 -2 26 -25 17 -23 -9 -25 -7
-25 20 0 35 22 40 53 13 19 -17 19 -17 16 2 -4 17 -13 20 -64 22 -33 1 -54 0
-47 -3z"/>
<path d="M303 185 c0 -38 4 -55 13 -55 9 0 11 11 8 38 -5 36 -5 36 11 17 9
-11 23 -29 31 -39 7 -11 15 -18 18 -15 10 10 10 103 -1 106 -15 5 -26 -14 -13
-22 5 -3 10 -16 10 -28 0 -18 -4 -16 -34 16 -18 20 -36 37 -38 37 -3 0 -5 -25
-5 -55z"/>
<path d="M908 193 c4 -39 3 -43 -18 -43 -20 0 -22 4 -18 40 3 33 0 40 -14 40
-15 0 -17 -6 -13 -41 3 -23 8 -45 11 -50 10 -16 53 -9 64 10 15 29 13 88 -4
88 -10 0 -12 -11 -8 -44z"/>
<path d="M1165 198 l-7 -33 -11 28 c-6 15 -17 27 -25 27 -7 0 -12 -3 -10 -7 2
-5 10 -25 18 -45 8 -21 16 -38 20 -38 11 0 40 84 31 93 -4 4 -12 -6 -16 -25z"/>
<path d="M1395 216 c-15 -11 -15 -14 5 -39 25 -31 20 -48 -6 -26 -15 12 -17
12 -12 -1 7 -22 52 -19 56 4 2 10 -3 23 -12 28 -20 11 -21 29 -1 22 8 -4 15
-2 15 4 0 16 -27 21 -45 8z"/>
<path d="M1465 178 c0 -36 4 -48 15 -48 11 0 15 12 15 44 0 32 -5 46 -15 49
-12 3 -15 -6 -15 -45z"/>
<path d="M1548 222 c-21 -2 -38 -8 -38 -14 0 -5 7 -7 16 -4 14 5 15 0 12 -34
-3 -34 -1 -40 15 -40 15 0 18 7 15 37 -2 31 0 37 19 39 26 4 48 -27 40 -57 -4
-14 0 -19 15 -19 15 0 18 5 14 16 -4 9 1 28 9 41 9 13 14 30 11 36 -2 7 -8 2
-11 -10 -8 -25 -25 -31 -25 -9 0 15 -36 23 -92 18z"/>
<path d="M420 183 c-8 -21 -16 -41 -18 -45 -2 -5 1 -8 7 -8 6 0 11 7 11 15 0
8 7 15 15 15 8 0 15 -7 15 -15 0 -8 7 -15 16 -15 11 0 14 5 9 18 -4 9 -12 29
-17 45 -13 36 -21 34 -38 -10z"/>
<path d="M495 175 c0 -30 4 -45 12 -45 9 0 12 9 8 28 l-5 27 12 -27 c11 -27
28 -38 28 -19 0 5 3 17 7 27 4 12 3 15 -5 10 -8 -4 -16 3 -22 18 -16 42 -35
32 -35 -19z"/>
<path d="M569 213 c-1 -5 -2 -25 -3 -45 -1 -28 3 -38 14 -38 11 0 15 12 15 45
0 29 -4 45 -12 45 -7 0 -14 -3 -14 -7z"/>
<path d="M619 178 c6 -40 8 -43 36 -43 28 0 30 3 36 43 4 31 2 42 -8 42 -8 0
-13 -13 -13 -35 0 -26 -4 -35 -16 -35 -13 0 -15 8 -12 35 3 27 0 35 -12 35
-13 0 -15 -8 -11 -42z"/>
<path d="M715 175 c0 -31 4 -45 14 -45 8 0 11 7 8 20 -7 26 0 25 23 -2 10 -13
22 -20 26 -16 4 5 -1 16 -10 27 -13 14 -14 20 -5 23 23 8 1 38 -28 38 -26 0
-28 -2 -28 -45z"/>
<path d="M955 175 c0 -30 4 -45 12 -45 9 0 11 10 7 33 l-6 32 30 -35 31 -35 1
32 c0 17 3 38 6 47 4 11 1 16 -10 16 -13 0 -15 -6 -11 -27 l6 -28 -21 28 c-31
40 -45 34 -45 -18z"/>
<path d="M1060 175 c0 -33 4 -45 15 -45 10 0 14 12 13 45 0 31 -5 45 -14 45
-10 0 -14 -14 -14 -45z"/>
<path d="M1208 175 c-3 -45 -3 -45 29 -45 17 0 35 5 39 11 4 7 -2 9 -16 7 -13
-2 -25 3 -28 11 -3 10 0 12 12 8 10 -4 16 -1 16 8 0 8 -4 14 -9 13 -5 -2 -8 2
-7 7 0 6 7 9 14 9 6 -1 12 2 12 7 0 5 -13 9 -29 9 -27 0 -29 -3 -33 -45z"/>
<path d="M1295 175 c0 -36 3 -45 16 -45 13 0 16 6 12 23 -6 21 -6 21 15 -3 20
-25 42 -23 26 2 -5 7 -9 24 -9 38 0 20 -5 26 -30 28 -29 3 -30 2 -30 -43z"/>
<path d="M115 170 c0 -37 2 -40 27 -40 20 0 32 7 40 25 14 31 -3 55 -41 55
-24 0 -26 -3 -26 -40z m52 14 c3 -8 -2 -23 -11 -32 -15 -15 -16 -14 -16 16 0
33 16 43 27 16z"/>
<path d="M200 170 c0 -38 2 -40 30 -40 17 0 30 5 30 10 0 6 -7 10 -16 8 -10
-2 -19 3 -22 11 -3 8 0 11 6 7 6 -3 13 -2 17 4 3 5 -1 10 -9 10 -9 0 -16 5
-16 11 0 6 7 9 15 5 8 -3 15 -1 15 4 0 6 -11 10 -25 10 -22 0 -25 -4 -25 -40z"/>
</g>
</svg>
