<?xml version="1.0" standalone="no"?>
<!DOCTYPE svg PUBLIC "-//W3C//DTD SVG 20010904//EN"
 "http://www.w3.org/TR/2001/REC-SVG-20010904/DTD/svg10.dtd">
<svg version="1.0" xmlns="http://www.w3.org/2000/svg"
 width="480.000000pt" height="100.000000pt" viewBox="0 0 480.000000 100.000000"
 preserveAspectRatio="xMidYMid meet">
<metadata>
Created by potrace 1.11, written by Peter Selinger 2001-2013
</metadata>
<g transform="translate(0.000000,100.000000) scale(0.100000,-0.100000)"
fill="#000000" stroke="none">
<path d="M0 500 l0 -500 39 0 c34 0 39 3 44 28 2 15 28 189 58 387 29 198 56
364 60 369 4 5 39 -3 78 -17 l71 -27 0 50 c0 48 -2 50 -36 65 -42 17 -40 41 4
39 27 -2 31 2 36 31 5 27 10 32 26 28 16 -4 20 -14 20 -43 0 -35 3 -39 35 -50
24 -8 35 -18 35 -31 0 -22 0 -22 -34 -9 -26 9 -26 9 -26 -40 l0 -50 58 -25
c113 -48 96 -16 193 -365 l88 -315 0 488 1 487 -375 0 -375 0 0 -500z"/>
<path d="M912 964 c42 -22 48 -44 47 -176 -1 -169 -8 -209 -39 -225 -22 -11
-16 -13 55 -12 76 0 78 0 49 13 -23 10 -33 23 -38 46 -9 50 -7 282 3 278 8 -3
202 -220 283 -316 15 -18 29 -32 32 -32 3 0 6 84 6 188 0 103 3 196 6 208 3
11 18 25 32 31 23 9 14 11 -53 11 -68 0 -76 -2 -52 -11 15 -6 30 -20 33 -32 2
-11 3 -80 2 -154 l-3 -133 -119 136 c-66 75 -129 149 -140 166 -19 27 -26 30
-76 29 -54 0 -55 0 -28 -15z"/>
<path d="M3080 970 c0 -5 9 -10 19 -10 10 0 22 -7 25 -16 3 -9 6 -94 6 -190
l0 -175 -31 -13 c-29 -12 -22 -13 83 -19 164 -9 241 12 297 80 99 121 43 305
-105 342 -55 14 -294 15 -294 1z m273 -24 c39 -16 82 -61 96 -99 18 -48 13
-146 -10 -193 -29 -61 -78 -89 -156 -89 -95 0 -97 4 -101 191 -5 210 -7 204
74 204 35 0 79 -6 97 -14z"/>
<path d="M1560 920 c-99 -18 -160 -91 -160 -195 0 -101 74 -175 180 -183 139
-10 232 100 206 243 -7 37 -53 97 -90 117 -30 16 -95 25 -136 18z m105 -34
c66 -44 93 -194 47 -267 -26 -43 -58 -59 -117 -59 -148 0 -199 274 -62 336 38
17 98 12 132 -10z"/>
<path d="M1820 891 c-12 -45 -5 -51 21 -17 19 24 27 27 72 24 l50 -3 -2 -160
c-1 -88 -5 -163 -9 -167 -4 -3 -16 -8 -27 -11 -11 -3 16 -5 60 -6 71 -1 77 1
55 12 -25 13 -25 13 -28 175 l-2 162 48 0 c50 0 72 -11 90 -44 8 -16 10 -12
13 25 l4 44 -168 0 -167 0 -10 -34z"/>
<path d="M2222 911 c-10 -6 -9 -10 7 -14 21 -5 21 -10 19 -168 l-3 -163 -25
-7 c-15 -4 7 -7 55 -7 65 0 75 1 53 10 -27 9 -28 12 -28 79 l0 69 29 0 c24 0
35 -10 72 -66 64 -99 62 -98 263 -95 94 1 174 6 178 9 4 4 11 23 14 42 l6 35
-30 -35 c-28 -33 -33 -35 -92 -34 -42 1 -65 5 -71 15 -5 8 -9 44 -9 82 l0 67
50 0 c45 0 52 -3 60 -25 15 -39 20 -30 20 38 -1 61 -1 61 -16 35 -13 -25 -20
-28 -64 -28 l-50 0 0 75 0 75 58 0 c59 0 92 -18 92 -48 0 -7 5 -12 11 -12 8 0
9 11 5 31 -3 17 -6 35 -6 40 0 5 -56 9 -125 9 -114 0 -157 -9 -105 -23 20 -5
20 -12 18 -169 l-3 -163 -32 -3 c-46 -5 -65 9 -119 89 l-49 71 27 22 c62 49
56 124 -12 158 -37 19 -173 25 -198 9z m175 -35 c23 -20 28 -32 27 -67 -2 -53
-29 -79 -85 -79 l-39 0 0 85 0 85 34 0 c22 0 45 -9 63 -24z"/>
<path d="M3703 908 c-6 -7 -34 -76 -63 -153 -66 -176 -75 -193 -102 -198 -13
-2 6 -5 42 -5 50 -1 59 1 42 9 -25 9 -25 9 3 89 12 35 12 35 75 35 l62 0 18
-58 18 -58 -21 -9 c-14 -6 26 -9 113 -9 90 0 128 3 113 9 -22 9 -23 14 -23
140 0 71 3 130 8 130 4 0 20 -31 37 -68 16 -37 46 -103 66 -146 l37 -80 76
150 75 149 0 -133 c1 -128 0 -133 -21 -142 -17 -6 -2 -9 52 -8 46 0 65 3 50 7
-25 7 -25 9 -33 151 -8 149 -2 190 28 190 8 0 15 5 15 10 0 6 -17 10 -38 10
l-39 0 -75 -152 -75 -153 -57 114 c-31 63 -61 132 -68 153 -11 36 -13 38 -55
38 -23 0 -43 -4 -43 -10 0 -5 7 -10 15 -10 7 0 18 -6 22 -14 11 -21 -5 -296
-18 -312 -14 -17 -73 -18 -86 -1 -6 6 -36 87 -68 180 -32 92 -61 167 -65 167
-4 0 -12 -6 -17 -12z m42 -189 c-6 -8 -95 -14 -95 -6 0 8 40 118 46 129 4 7
17 -14 31 -51 13 -34 21 -67 18 -72z"/>
<path d="M4440 911 c0 -5 9 -11 20 -14 20 -5 20 -12 18 -168 l-3 -163 -25 -7
c-14 -4 39 -7 118 -8 l142 -1 10 26 c19 50 11 60 -19 24 -27 -33 -32 -35 -91
-34 -42 1 -65 5 -71 15 -5 8 -9 44 -9 82 l0 67 50 0 c45 0 52 -3 60 -25 15
-39 20 -30 20 38 -1 61 -1 61 -16 35 -13 -25 -20 -28 -64 -28 l-50 0 0 75 0
75 58 0 c59 0 92 -18 92 -48 0 -7 5 -12 11 -12 7 0 9 9 5 23 -3 12 -6 30 -6
40 0 15 -13 17 -125 17 -69 0 -125 -4 -125 -9z"/>
<path d="M309 668 c0 -29 -2 -72 -5 -95 -5 -39 -4 -43 25 -58 l31 -16 0 100
c0 89 -2 101 -19 111 -30 15 -31 14 -32 -42z"/>
<path d="M296 393 c-4 -38 -8 -91 -11 -119 -5 -49 -4 -51 30 -67 l35 -17 0
125 c0 113 -2 125 -19 135 -11 5 -22 10 -25 10 -2 0 -7 -30 -10 -67z"/>
<path d="M1373 229 c14 -8 17 -25 17 -104 0 -79 -3 -96 -17 -104 -14 -8 -9
-10 26 -11 39 0 42 2 27 13 -14 10 -16 25 -14 87 l3 75 80 -92 80 -93 5 111
c4 83 9 112 20 119 11 7 2 10 -29 10 -39 0 -43 -2 -27 -13 13 -10 19 -32 23
-80 3 -37 2 -67 -3 -66 -5 0 -40 36 -78 80 -59 67 -75 79 -100 79 -26 -1 -28
-2 -13 -11z"/>
<path d="M2688 228 c7 -7 12 -43 12 -89 0 -94 21 -129 80 -131 82 -3 110 34
110 146 0 51 4 67 18 75 13 8 7 10 -28 10 -35 0 -41 -2 -27 -10 27 -16 25
-147 -4 -183 -20 -25 -53 -33 -75 -18 -23 15 -34 53 -34 121 0 56 3 72 18 80
13 8 6 10 -32 11 -39 0 -47 -3 -38 -12z"/>
<path d="M1713 208 c-5 -7 -25 -50 -43 -96 -18 -45 -40 -87 -49 -92 -12 -7 -6
-9 24 -10 26 0 35 3 26 9 -23 15 0 65 32 69 23 3 30 -2 41 -30 11 -25 11 -35
3 -40 -7 -4 8 -8 33 -8 34 1 41 3 28 10 -9 6 -31 53 -48 105 -17 52 -33 95
-35 95 -1 0 -7 -6 -12 -12z m12 -85 c5 -20 3 -23 -19 -23 -24 0 -24 2 -14 31
11 32 21 29 33 -8z"/>
<path d="M4010 200 c-31 -31 -24 -55 25 -96 53 -43 58 -77 14 -82 -19 -2 -33
4 -48 24 -18 23 -21 24 -21 7 0 -29 20 -43 61 -43 43 0 69 21 69 56 0 24 -7
32 -64 78 -20 15 -27 28 -23 40 11 28 36 30 63 6 17 -17 24 -19 24 -9 0 41
-66 53 -100 19z"/>
<path d="M4305 202 c-9 -24 -5 -38 6 -19 6 10 22 17 39 17 l30 0 0 -89 c0 -77
-2 -90 -17 -94 -10 -3 7 -5 37 -5 30 0 47 2 38 5 -16 4 -18 17 -18 94 l0 89
26 0 c15 0 33 -8 40 -17 12 -17 13 -16 14 7 0 25 0 25 -95 25 -70 0 -96 -4
-100 -13z"/>
<path d="M1859 201 c11 -7 13 -26 7 -92 -4 -47 -12 -87 -19 -91 -7 -4 3 -7 23
-7 19 0 29 3 23 6 -9 3 -13 28 -12 76 l1 72 36 -77 c21 -43 39 -78 42 -77 3 0
22 35 42 77 l36 77 1 -72 c1 -48 -3 -73 -11 -76 -7 -3 7 -6 32 -6 32 -1 41 2
30 9 -21 13 -28 169 -9 181 10 6 6 9 -13 9 -23 0 -30 -9 -59 -70 -17 -39 -35
-70 -39 -70 -3 0 -19 31 -36 70 -27 65 -31 70 -59 70 -21 0 -26 -3 -16 -9z"/>
<path d="M2151 124 c6 -100 17 -114 84 -114 60 0 76 22 83 112 3 40 10 76 16
80 6 4 -5 7 -24 7 -19 0 -29 -3 -22 -6 18 -7 16 -133 -4 -161 -18 -26 -56 -29
-79 -6 -13 14 -16 33 -13 95 3 79 3 79 -22 79 l-25 0 6 -86z"/>
<path d="M2378 203 c8 -3 12 -32 12 -93 0 -76 -2 -89 -17 -93 -10 -3 4 -5 30
-6 44 -1 47 0 33 15 -21 20 -21 74 -1 74 8 0 20 -10 26 -23 20 -38 52 -67 75
-67 21 0 21 1 -6 31 -38 39 -47 69 -26 81 23 13 21 65 -3 78 -11 5 -46 10 -78
9 -32 0 -52 -3 -45 -6z m100 -39 c3 -34 -18 -60 -43 -50 -9 3 -15 18 -15 39 0
40 7 49 35 45 14 -2 21 -12 23 -34z"/>
<path d="M2968 203 c8 -3 12 -32 12 -93 0 -61 -4 -90 -12 -93 -7 -3 5 -6 26
-6 35 -1 38 1 22 12 -14 10 -16 25 -14 76 l3 64 65 -76 c36 -41 68 -76 73 -76
4 -1 7 39 7 87 0 55 4 92 12 100 9 9 6 12 -15 12 -24 0 -26 -2 -17 -19 5 -11
10 -43 10 -72 l0 -53 -33 32 c-19 18 -47 50 -63 72 -23 31 -35 39 -59 39 -16
0 -24 -3 -17 -6z"/>
<path d="M3248 119 c3 -68 0 -94 -10 -100 -8 -6 4 -9 32 -9 28 0 40 3 32 9
-10 6 -13 32 -10 100 l3 91 -25 0 -25 0 3 -91z"/>
<path d="M3353 195 c8 -8 30 -53 49 -100 18 -47 36 -85 39 -85 3 0 23 39 43
88 21 48 45 93 54 100 14 10 13 12 -9 12 -17 0 -25 -6 -26 -18 -1 -10 -12 -42
-26 -72 l-24 -55 -22 50 c-13 28 -24 60 -24 72 -2 19 -8 23 -35 23 -29 0 -32
-2 -19 -15z"/>
<path d="M3588 116 c3 -84 1 -95 -15 -99 -10 -3 20 -4 67 -4 76 2 85 4 89 22
3 19 3 19 -17 2 -12 -11 -31 -17 -49 -15 -25 3 -28 7 -31 46 -3 39 -1 42 22
42 13 0 27 -6 29 -12 3 -7 5 1 5 17 0 17 -2 24 -5 18 -2 -7 -16 -13 -29 -13
-21 0 -24 4 -24 40 0 38 2 40 30 40 17 0 33 -7 39 -17 9 -16 10 -16 11 5 0 20
-4 22 -62 22 l-63 0 3 -94z"/>
<path d="M3778 203 c8 -3 12 -32 12 -93 0 -76 -2 -89 -17 -93 -10 -3 4 -5 30
-6 44 -1 47 0 33 15 -21 20 -21 74 -1 74 8 0 20 -10 26 -23 20 -38 52 -67 75
-67 21 0 21 1 -6 31 -38 39 -47 69 -26 81 23 13 21 65 -3 78 -11 5 -46 10 -78
9 -32 0 -52 -3 -45 -6z m100 -39 c3 -34 -18 -60 -43 -50 -10 3 -15 19 -15 46
0 39 1 41 28 38 22 -2 28 -9 30 -34z"/>
<path d="M4188 119 c3 -68 0 -94 -10 -100 -8 -6 4 -9 32 -9 28 0 40 3 32 9
-10 6 -13 32 -10 100 l3 91 -25 0 -25 0 3 -91z"/>
<path d="M4528 203 c40 -16 82 -173 50 -186 -7 -3 10 -5 37 -5 28 0 42 2 33 5
-41 11 -2 152 50 183 13 7 10 9 -16 10 -21 0 -31 -4 -26 -11 6 -11 -25 -79
-36 -79 -11 0 -41 71 -35 81 4 5 -11 9 -32 8 -21 0 -32 -3 -25 -6z"/>
<path d="M908 178 c7 -7 12 -40 12 -78 0 -38 -5 -71 -12 -78 -18 -18 96 -16
131 3 62 32 59 124 -5 151 -43 18 -144 20 -126 2z m117 -23 c54 -53 7 -157
-60 -131 -12 4 -15 23 -15 81 0 74 0 75 25 75 14 0 37 -11 50 -25z"/>
<path d="M1118 109 c3 -60 0 -84 -10 -90 -8 -5 16 -9 58 -9 58 0 73 3 78 16 9
23 1 28 -14 9 -7 -8 -25 -15 -41 -15 -22 0 -30 6 -35 25 -3 14 -4 32 0 40 7
18 42 20 49 3 3 -7 6 -4 6 8 1 17 -4 20 -30 16 -29 -4 -30 -3 -27 29 2 27 8
35 27 37 15 3 30 -3 38 -14 12 -17 13 -16 13 4 0 20 -5 22 -57 22 l-58 0 3
-81z"/>
<path d="M276 113 c-3 -21 -6 -55 -6 -75 0 -38 0 -38 40 -38 l40 0 0 59 c0 60
-7 73 -46 85 -18 6 -22 1 -28 -31z"/>
</g>
</svg>
